HIERARCHY
ROOT hip
{
	OFFSET 0.000000 0.000000 0.000000 
	CHANNELS 6 Xposition Yposition Zposition Xrotation Zrotation Yrotation
	JOINT abdomen
	{
		OFFSET 0.000000 3.402643 0.000000 
		CHANNELS 3 Xrotation Zrotation Yrotation
		JOINT chest
		{
			OFFSET 0.000000 8.438565 -0.680529 
			CHANNELS 3 Xrotation Zrotation Yrotation
			JOINT neck
			{
				OFFSET 0.000000 10.207942 -0.272212 
				CHANNELS 3 Xrotation Zrotation Yrotation
				JOINT head
				{
					OFFSET 0.000000 3.130431 0.000000 
					CHANNELS 3 Xrotation Zrotation Yrotation
					End Site
					{
						OFFSET 0.000000 3.130435 0.000000 
					}
				}
			}
			JOINT lCollar
			{
				OFFSET 3.470700 6.669187 -0.816635 
				CHANNELS 3 Yrotation Zrotation Xrotation
				JOINT lShldr
				{
					OFFSET 3.198488 0.000000 0.000000 
					CHANNELS 3 Zrotation Yrotation Xrotation
					JOINT lForeArm
					{
						OFFSET 10.139888 0.000000 0.000000 
						CHANNELS 3 Yrotation Zrotation Xrotation
						JOINT lHand
						{
							OFFSET 8.370511 0.000000 0.000000 
							CHANNELS 3 Zrotation Yrotation Xrotation
							End Site
							{
								OFFSET 4.083176 0.000000 0.000000 
							}
						}
					}
				}
			}
			JOINT rCollar
			{
				OFFSET -3.470700 6.669187 -0.816635 
				CHANNELS 3 Yrotation Zrotation Xrotation
				JOINT rShldr
				{
					OFFSET -3.198488 0.000000 0.000000 
					CHANNELS 3 Zrotation Yrotation Xrotation
					JOINT rForeArm
					{
						OFFSET -10.139888 0.000000 0.000000 
						CHANNELS 3 Yrotation Zrotation Xrotation
						JOINT rHand
						{
							OFFSET -8.370511 0.000000 0.000000 
							CHANNELS 3 Zrotation Yrotation Xrotation
							End Site
							{
								OFFSET -4.083176 0.000000 0.000000 
							}
						}
					}
				}
			}
		}
	}
	JOINT lThigh
	{
		OFFSET 5.308129 -1.633274 1.361059 
		CHANNELS 3 Xrotation Zrotation Yrotation
		JOINT lShin
		{
			OFFSET -2.041588 -20.007561 0.000000 
			CHANNELS 3 Xrotation Zrotation Yrotation
			JOINT lFoot
			{
				OFFSET 0.000000 -19.190928 -1.224953 
				CHANNELS 3 Xrotation Yrotation Zrotation
				End Site
				{
					OFFSET 0.000000 -2.449906 4.627600 
				}
			}
		}
	}
	JOINT rThigh
	{
		OFFSET -5.308129 -1.633274 1.361059 
		CHANNELS 3 Xrotation Zrotation Yrotation
		JOINT rShin
		{
			OFFSET 2.041588 -20.007561 0.000000 
			CHANNELS 3 Xrotation Zrotation Yrotation
			JOINT rFoot
			{
				OFFSET 0.000000 -19.190928 -1.224953 
				CHANNELS 3 Xrotation Yrotation Zrotation
				End Site
				{
					OFFSET 0.000000 -2.449906 4.627600 
				}
			}
		}
	}
}
MOTION
Frames: 16
Frame Time: 0.033333
0.000000 29.042154 0.000000 3.339844 5.087891 124.052734 45.450932 -9.990913 -5.362717 -23.701174 8.232423 1.093750 51.063168 8.107644 2.471410 -78.173828 -3.476562 -4.482422 2.000000 -2.000000 0.000000 -99.960938 20.136717 -59.345703 -70.419930 -0.848598 -2.695357 22.007168 54.316246 18.753036 -2.000000 2.000000 0.000000 86.669922 -32.763668 -39.546295 77.242081 0.352937 -2.919735 -14.338452 -62.240025 23.823414 -70.093628 18.103645 11.530730 63.304733 -2.680265 -4.646828 15.665344 14.825803 -0.688359 -70.783630 -19.226509 -2.928971 61.156399 2.293554 4.194841 19.464624 -7.703477 10.111846 
0.000000 29.055925 0.000000 3.339844 4.902344 124.042969 45.270966 -10.201819 -5.328998 -23.701174 8.232423 1.093750 51.063168 8.107644 2.471410 -79.375000 -3.173828 -2.929688 2.000000 -2.000000 0.000000 -100.029297 19.960938 -58.658779 -70.247536 -0.718021 -2.468129 22.986792 54.358906 19.508379 -2.000000 2.000000 0.000000 86.933594 -32.255863 -41.753258 77.066299 0.362686 -2.919172 -8.801882 -63.060829 19.696974 -70.458527 17.939592 11.567033 63.118652 -2.684527 -4.643616 15.989416 14.732049 -0.809334 -70.960068 -19.226559 -2.903916 60.979149 2.294810 4.220670 19.827740 -7.733055 10.334568 
0.000000 29.078955 0.000000 3.164063 4.726563 123.848473 45.042244 -10.382915 -5.014750 -23.701174 8.232423 1.269531 51.063168 8.107644 2.471410 -81.914063 -2.255859 1.416016 2.000000 -2.000000 0.000000 -99.824219 20.039063 -57.763668 -70.244408 -0.858913 -2.704537 22.985968 54.622780 19.843454 -2.000000 2.000000 0.000000 87.011719 -31.689455 -44.428959 77.418137 0.343752 -2.930045 -1.277873 -63.854824 13.953644 -70.632675 17.928799 11.727526 63.108078 -2.494704 -4.666437 15.782325 15.052999 -1.008016 -70.971123 -19.168243 -3.025293 60.979149 2.294813 4.220671 19.766497 -7.897390 10.124482 
0.000000 29.140974 0.000000 2.978516 4.384766 123.633568 44.831848 -10.557231 -4.717077 -23.886721 8.232423 1.240235 51.063168 8.107644 2.471410 -84.941406 -0.849609 7.158204 2.000000 -2.000000 0.000000 -99.707031 19.980471 -57.099609 -70.244408 -0.858913 -2.704537 23.198742 54.794098 20.202793 -2.000000 2.000000 0.000000 86.982422 -30.595707 -46.958096 78.824684 0.285821 -2.943174 2.335099 -62.737953 10.157368 -70.808739 17.938671 11.669731 62.943596 -2.680170 -4.607303 15.784616 14.907127 -1.260454 -71.162910 -19.020645 -2.770240 60.817051 2.490367 3.825346 20.043583 -7.373701 10.281188 
0.000000 29.209948 0.000000 2.812500 4.199219 123.613991 44.777687 -10.738430 -4.402953 -23.886721 8.056641 1.396484 51.063168 8.107644 2.471410 -87.753906 1.152344 13.681641 2.000000 -2.000000 0.000000 -99.462891 19.892578 -55.992779 -70.075562 -0.717047 -2.957221 24.606398 54.536121 21.747816 -2.000000 2.000000 0.000000 87.841797 -28.896484 -50.200031 82.517487 0.122903 -3.001488 -0.864765 -59.128197 8.549216 -71.020760 17.781178 11.392889 62.788372 -2.885013 -4.549914 15.888889 15.031228 -1.235378 -71.343925 -19.208084 -2.767502 60.641102 2.509837 3.812753 20.232407 -7.248115 10.741816 
0.000000 29.309578 0.000000 2.636719 4.023438 123.759766 44.556206 -10.910558 -4.083628 -23.886721 8.056641 1.572266 51.063168 8.107644 2.471410 -89.511719 3.632812 20.195313 2.000000 -2.000000 0.000000 -99.101563 19.609375 -55.302738 -69.726547 -0.877845 -2.693511 24.447357 54.610233 21.721693 -2.000000 2.000000 0.000000 87.958984 -26.992191 -52.943886 86.916107 0.287349 -3.138696 -7.328040 -53.623806 8.220062 -71.196571 17.615025 11.484391 62.755772 -2.524896 -4.655812 15.985167 15.086114 -1.043697 -71.343933 -19.208082 -2.767505 60.289063 2.539097 3.791688 20.087955 -7.096199 10.590621 
0.000000 29.406780 0.000000 2.460938 3.857422 123.926445 44.509850 -11.082732 -3.764325 -23.886721 8.056641 1.572266 51.063168 8.107644 2.471410 -89.941406 7.187500 28.359373 2.000000 -2.000000 0.000000 -98.564453 19.492189 -53.395180 -69.372147 -0.735981 -2.946345 24.919083 54.808163 21.804617 -2.000000 2.000000 0.000000 85.537109 -25.986330 -50.507816 92.871475 -0.330240 -3.115647 -13.670076 -49.588978 9.644069 -71.397751 17.447163 11.366351 62.612331 -2.904635 -4.536786 16.007521 14.776396 -1.020291 -71.540253 -19.383995 -2.606747 60.112617 2.548882 3.792897 20.241123 -7.388969 10.677054 
0.000000 29.507338 0.000000 2.460938 3.681641 124.268204 44.453560 -11.260645 -3.459521 -23.710939 8.056641 1.777344 51.063168 8.107644 2.471410 -88.789063 11.171873 37.109375 2.000000 -2.000000 0.000000 -97.324219 19.316404 -51.884766 -68.668457 -0.764100 -2.925158 24.673159 54.723572 21.836689 -2.000000 2.000000 0.000000 80.175781 -24.785156 -43.632809 98.662376 -0.583723 -3.130265 -19.255358 -45.912735 12.946683 -71.573250 17.075932 11.795630 62.392796 -2.562957 -4.668075 16.270451 15.034699 -0.963951 -71.477905 -19.568386 -3.070361 60.108009 2.363186 4.201921 20.190432 -7.935899 10.859101 
0.000000 29.553513 0.000000 2.275391 3.496094 124.590439 44.406624 -11.442017 -3.143721 -23.710939 8.056641 1.777344 51.063168 8.107644 2.471410 -86.582031 13.681639 42.792973 2.000000 -2.000000 0.000000 -96.660156 18.476563 -50.504719 -67.784645 -0.801796 -2.394806 24.358917 54.823032 21.364510 -2.000000 2.000000 0.000000 74.033195 -23.398439 -35.068359 104.793533 -1.200184 -3.126907 -24.756163 -41.971981 16.899359 -71.575645 16.881477 11.939395 62.233467 -2.544308 -4.470518 16.233795 14.932902 -0.783423 -71.659065 -19.941082 -2.775150 59.922874 2.374194 4.174498 20.184851 -8.037706 11.163728 
0.000000 29.607901 0.000000 2.275391 3.320313 124.932205 44.358166 -11.610881 -2.833657 -23.720703 7.880860 1.933594 51.063168 8.107644 2.471410 -83.779297 14.912107 44.716797 2.000000 -2.000000 0.000000 -95.332031 18.046875 -48.688385 -67.097343 -0.961062 -2.610443 23.590960 54.969894 21.135998 -2.000000 2.000000 0.000000 67.539063 -20.537111 -25.761721 111.301399 -1.456044 -2.594371 -29.334324 -37.767990 20.328070 -71.602478 16.558098 11.617513 61.895790 -2.778647 -4.577968 16.162695 14.818784 -0.265218 -71.617607 -20.282118 -2.869969 59.923386 2.382640 4.159854 20.228735 -7.802279 11.249042 
0.000000 29.650717 0.000000 2.265625 3.154297 125.458992 44.508957 -11.687342 -2.685074 -23.720703 7.880860 1.933594 51.063168 8.107644 2.471410 -80.546875 15.712890 45.742188 2.000000 -2.000000 0.000000 -94.462891 17.714846 -47.301720 -66.393379 -0.988612 -2.579505 23.186853 55.077271 20.557621 -2.000000 2.000000 0.000000 60.996098 -17.480471 -16.741215 117.632294 -1.420306 -3.041856 -34.005894 -33.487656 23.894541 -71.604393 16.178122 12.047344 61.705296 -2.602851 -4.442392 16.263124 14.507573 0.118259 -71.615417 -20.466986 -2.720563 59.922935 2.402191 4.170601 20.237240 -8.080889 11.728794 
0.000000 29.670269 0.000000 2.109375 2.978516 125.801292 44.459721 -11.859674 -2.365891 -23.544924 7.871094 2.128906 51.063168 8.107644 2.471410 -77.441406 16.191404 45.361328 2.000000 -2.000000 0.000000 -93.857422 17.011719 -45.895584 -65.495293 -0.695227 -2.244432 22.665648 54.566246 19.780355 -2.000000 2.000000 0.000000 55.175781 -13.408204 -7.695313 123.578423 -2.181009 -2.743970 -37.314438 -29.478235 26.173769 -71.623840 15.846231 11.966679 61.554054 -2.944572 -4.518704 16.430805 14.575521 0.133118 -71.811615 -20.643070 -2.564791 59.923386 2.382640 4.159855 20.224461 -8.183775 11.836195 
0.000000 29.689482 0.000000 2.109375 2.792969 126.143059 44.610191 -11.939580 -2.210177 -23.544924 7.871094 2.128906 51.063168 8.107644 2.471410 -75.263672 16.289063 43.371883 2.000000 -2.000000 0.000000 -93.095703 17.255859 -44.804688 -65.514175 -1.017293 -2.568058 22.554279 54.612469 19.713755 -2.000000 2.000000 0.000000 50.322262 -9.316406 -0.371094 129.202942 -2.385741 -2.755839 -40.380093 -25.712257 28.301319 -71.797958 15.660140 12.215094 61.346657 -2.826334 -4.578641 15.990383 14.416142 0.538128 -71.984474 -21.013409 -2.244563 60.099243 2.381304 4.172597 19.921661 -7.840308 12.294867 
0.000000 29.747108 0.000000 1.933594 2.617188 126.474609 44.926403 -12.016064 -2.061595 -23.369141 7.871095 2.149775 51.063168 8.107644 2.471410 -74.501953 15.527342 39.355473 2.000000 -2.000000 0.000000 -92.753906 17.363281 -44.091797 -65.514175 -1.017293 -2.568058 22.564434 54.339043 19.358845 -2.000000 2.000000 0.000000 45.966797 -5.078125 5.692497 134.322952 -2.254784 -2.484616 -43.135681 -22.703032 29.982700 -71.821342 15.222635 12.437621 61.317158 -2.650461 -4.602114 16.002077 14.280891 0.863219 -72.177330 -21.211105 -2.085253 60.284569 2.377655 4.194467 19.567921 -8.083306 12.386922 
0.000000 29.762959 0.000000 1.757813 2.275391 126.806641 45.056385 -11.983234 -1.786431 -23.359375 8.046876 2.177735 51.063168 8.107644 2.471410 -75.195313 14.218750 33.779293 2.000000 -2.000000 0.000000 -92.626953 17.880857 -43.662109 -65.689964 -1.007544 -2.568625 22.311008 53.688038 18.594021 -2.000000 2.000000 0.000000 41.806641 -2.089844 10.038706 137.497131 -2.215221 -2.492094 -44.550541 -20.806089 31.132856 -71.974670 15.191545 12.767353 61.340481 -2.456420 -4.513668 15.939090 13.994879 0.932978 -72.481728 -21.344872 -2.591351 60.417812 1.845553 4.024456 19.430647 -7.788695 12.617469 
0.000000 29.788534 0.000000 1.572266 2.089844 126.972656 45.381168 -12.050619 -1.636451 -23.183594 8.037110 2.208397 51.063168 8.107644 2.471410 -75.878906 12.617187 27.324217 2.000000 -2.000000 0.000000 -92.822266 18.554689 -43.532051 -66.217598 -0.988612 -2.579505 22.400484 53.152611 18.225067 -2.000000 2.000000 0.000000 37.138672 0.068359 13.691418 139.240967 -2.418138 -2.366992 -45.837860 -20.420296 32.107979 -72.349380 15.037384 12.643507 61.529480 -2.630881 -4.424891 15.784003 14.267056 1.303173 -72.896797 -21.571259 -1.832081 60.636959 2.343665 4.202569 19.044495 -8.201897 12.813719 
